<?xml version="1.0" encoding="UTF-8" standalone="no"?>
<svg
   xmlns:dc="http://purl.org/dc/elements/1.1/"
   xmlns:cc="http://creativecommons.org/ns#"
   xmlns:rdf="http://www.w3.org/1999/02/22-rdf-syntax-ns#"
   xmlns:svg="http://www.w3.org/2000/svg"
   xmlns="http://www.w3.org/2000/svg"
   xmlns:sodipodi="http://sodipodi.sourceforge.net/DTD/sodipodi-0.dtd"
   xmlns:inkscape="http://www.inkscape.org/namespaces/inkscape"
   version="1.1"
   id="Capa_1"
   x="0px"
   y="0px"
   viewBox="0 0 456.088 456.088"
   style="enable-background:new 0 0 456.088 456.088;"
   xml:space="preserve"
   sodipodi:docname="calendario.svg"
   inkscape:version="1.0.1 (1.0.1+r73)"><metadata
   id="metadata69"><rdf:RDF><cc:Work
       rdf:about=""><dc:format>image/svg+xml</dc:format><dc:type
         rdf:resource="http://purl.org/dc/dcmitype/StillImage" /></cc:Work></rdf:RDF></metadata><defs
   id="defs67" /><sodipodi:namedview
   pagecolor="#ffffff"
   bordercolor="#666666"
   borderopacity="1"
   objecttolerance="10"
   gridtolerance="10"
   guidetolerance="10"
   inkscape:pageopacity="0"
   inkscape:pageshadow="2"
   inkscape:window-width="857"
   inkscape:window-height="480"
   id="namedview65"
   showgrid="false"
   inkscape:zoom="0.71634096"
   inkscape:cx="228.04401"
   inkscape:cy="228.04401"
   inkscape:window-x="0"
   inkscape:window-y="0"
   inkscape:window-maximized="0"
   inkscape:current-layer="g32" />
<g
   id="g32">
	<g
   id="g4"
   style="fill:#ffffff">
		<path
   d="M418.509,50.823h-3.577V34.601c0-16.522-13.394-29.917-29.915-29.917c-16.552,0-29.946,13.395-29.946,29.917v16.222    h-44.583V34.601c0-16.522-13.393-29.917-29.916-29.917c-16.537,0-29.931,13.395-29.931,29.917v16.222h-44.896V34.601    c0-16.522-13.394-29.917-29.916-29.917c-16.537,0-29.946,13.395-29.946,29.917v16.222h-44.881V34.601    c0-16.522-13.396-29.917-29.932-29.917c-16.521,0-29.915,13.395-29.915,29.917v16.222h-3.592C16.822,50.823,0,67.63,0,88.371    L0.3,383.91c0,37.219,30.275,67.494,67.495,67.494h320.499c37.219,0,67.465-30.275,67.465-67.494l0.329-295.539    C456.088,67.63,439.267,50.823,418.509,50.823z M425.857,383.91c0,20.741-16.835,37.578-37.563,37.578H67.795    c-20.729,0-37.564-16.837-37.564-37.578V130.305h395.626V383.91z"
   id="path2"
   style="fill:#ffffff" />
	</g>
	<g
   id="g30"
   style="fill:#ffffff">
		<g
   id="g8"
   style="fill:#ffffff">
			<path
   d="M81.712,265.294h63.663c8.426,0,15.249-6.824,15.249-15.251v-63.677c0-8.426-6.824-15.235-15.249-15.235H81.712     c-8.425,0-15.25,6.81-15.25,15.235v63.677C66.463,258.47,73.287,265.294,81.712,265.294z"
   id="path6"
   style="fill:#ffffff" />
		</g>
		<g
   id="g12"
   style="fill:#ffffff">
			<path
   d="M81.712,380.857h63.663c8.426,0,15.249-6.824,15.249-15.236v-63.691c0-8.411-6.824-15.236-15.249-15.236H81.712     c-8.425,0-15.25,6.825-15.25,15.236v63.691C66.463,374.033,73.287,380.857,81.712,380.857z"
   id="path10"
   style="fill:#ffffff" />
		</g>
		<g
   id="g16"
   style="fill:#ffffff">
			<path
   d="M197.275,380.857h63.678c8.41,0,15.25-6.824,15.25-15.236v-63.691c0-8.411-6.84-15.236-15.25-15.236h-63.678     c-8.425,0-15.236,6.825-15.236,15.236v63.691C182.04,374.033,188.85,380.857,197.275,380.857z"
   id="path14"
   style="fill:#ffffff" />
		</g>
		<g
   id="g20"
   style="fill:#ffffff">
			<path
   d="M312.449,265.294h63.663c8.441,0,15.249-6.824,15.249-15.251v-63.677c0-8.426-6.809-15.235-15.249-15.235h-63.663     c-8.426,0-15.249,6.81-15.249,15.235v63.677C297.2,258.47,304.023,265.294,312.449,265.294z M315.802,191.708     c0-1.092,0.883-2.006,1.989-2.006h52.978c1.106,0,2.004,0.914,2.004,2.006v52.993c0,1.107-0.898,1.99-2.004,1.99h-52.978     c-1.107,0-1.989-0.883-1.989-1.99V191.708z"
   id="path18"
   style="fill:#ffffff" />
		</g>
		<g
   id="g24"
   style="fill:#ffffff">
			<path
   d="M312.449,380.857h63.663c8.441,0,15.249-6.824,15.249-15.236v-63.691c0-8.411-6.809-15.236-15.249-15.236h-63.663     c-8.426,0-15.249,6.825-15.249,15.236v63.691C297.2,374.033,304.023,380.857,312.449,380.857z"
   id="path22"
   style="fill:#ffffff" />
		</g>
		<g
   id="g28"
   style="fill:#ffffff">
			<path
   d="M196.886,265.294h63.663c8.41,0,15.25-6.824,15.25-15.251v-63.677c0-8.426-6.839-15.235-15.25-15.235h-63.663     c-8.441,0-15.249,6.81-15.249,15.235v63.677C181.637,258.47,188.445,265.294,196.886,265.294z"
   id="path26"
   style="fill:#ffffff" />
		</g>
	</g>
</g>
<g
   id="g34">
</g>
<g
   id="g36">
</g>
<g
   id="g38">
</g>
<g
   id="g40">
</g>
<g
   id="g42">
</g>
<g
   id="g44">
</g>
<g
   id="g46">
</g>
<g
   id="g48">
</g>
<g
   id="g50">
</g>
<g
   id="g52">
</g>
<g
   id="g54">
</g>
<g
   id="g56">
</g>
<g
   id="g58">
</g>
<g
   id="g60">
</g>
<g
   id="g62">
</g>
</svg>
