<svg version="1.1" id="Layer_1" xmlns="http://www.w3.org/2000/svg" xmlns:xlink="http://www.w3.org/1999/xlink" x="0px" y="0px"
	 viewBox="0 0 48 74" style="enable-background:new 0 0 432.3 512;" xml:space="preserve">
<path style="fill:#1f8af1;" d="M48,26.9v41.6c0,3.1-2.5,5.6-5.6,5.6H5.6C2.5,74,0,71.5,0,68.4V26.9H48z M12.4,37.2v-3.3c0-0.8-0.7-1.5-1.5-1.5
              H7.6c-0.8,0-1.5,0.7-1.5,1.5v3.3c0,0.8,0.7,1.5,1.5,1.5h3.3C11.8,38.7,12.4,38,12.4,37.2z M21.4,37.2v-3.3c0-0.8-0.7-1.5-1.5-1.5
              h-3.3c-0.8,0-1.5,0.7-1.5,1.5v3.3c0,0.8,0.7,1.5,1.5,1.5h3.3C20.7,38.7,21.4,38,21.4,37.2z M30.4,37.2v-3.3c0-0.8-0.7-1.5-1.5-1.5
              h-3.3c-0.8,0-1.5,0.7-1.5,1.5v3.3c0,0.8,0.7,1.5,1.5,1.5h3.3C29.7,38.7,30.4,38,30.4,37.2z M12.4,47.3V44c0-0.8-0.7-1.5-1.5-1.5H7.6
              c-0.8,0-1.5,0.7-1.5,1.5v3.3c0,0.8,0.7,1.5,1.5,1.5h3.3C11.8,48.8,12.4,48.2,12.4,47.3z M21.4,47.3V44c0-0.8-0.7-1.5-1.5-1.5h-3.3
              c-0.8,0-1.5,0.7-1.5,1.5v3.3c0,0.8,0.7,1.5,1.5,1.5h3.3C20.7,48.8,21.4,48.2,21.4,47.3z M30.4,47.3V44c0-0.8-0.7-1.5-1.5-1.5h-3.3
              c-0.8,0-1.5,0.7-1.5,1.5v3.3c0,0.8,0.7,1.5,1.5,1.5h3.3C29.7,48.8,30.4,48.2,30.4,47.3z M12.4,57.5v-3.3c0-0.8-0.7-1.5-1.5-1.5H7.6
              c-0.8,0-1.5,0.7-1.5,1.5v3.3c0,0.8,0.7,1.5,1.5,1.5h3.3C11.8,59,12.4,58.3,12.4,57.5z M21.4,57.5v-3.3c0-0.8-0.7-1.5-1.5-1.5h-3.3
              c-0.8,0-1.5,0.7-1.5,1.5v3.3c0,0.8,0.7,1.5,1.5,1.5h3.3C20.7,59,21.4,58.3,21.4,57.5z M30.4,57.5v-3.3c0-0.8-0.7-1.5-1.5-1.5h-3.3
              c-0.8,0-1.5,0.7-1.5,1.5v3.3c0,0.8,0.7,1.5,1.5,1.5h3.3C29.7,59,30.4,58.3,30.4,57.5z M41.9,37.2v-3.3c0-0.8-0.7-1.5-1.5-1.5h-3.3
              c-0.8,0-1.5,0.7-1.5,1.5v3.3c0,0.8,0.7,1.5,1.5,1.5h3.3C41.2,38.7,41.9,38,41.9,37.2z M41.9,47.3V44c0-0.8-0.7-1.5-1.5-1.5h-3.3
              c-0.8,0-1.5,0.7-1.5,1.5v3.3c0,0.8,0.7,1.5,1.5,1.5h3.3C41.2,48.8,41.9,48.2,41.9,47.3z M41.9,67.7V54.2c0-0.8-0.7-1.5-1.5-1.5h-3.3
              c-0.8,0-1.5,0.7-1.5,1.5v13.5c0,0.8,0.7,1.5,1.5,1.5h3.3C41.2,69.2,41.9,68.5,41.9,67.7z M12.4,67.7v-3.3c0-0.8-0.7-1.5-1.5-1.5H7.6
              c-0.8,0-1.5,0.7-1.5,1.5v3.3c0,0.8,0.7,1.5,1.5,1.5h3.3C11.8,69.2,12.4,68.5,12.4,67.7z M21.4,67.7v-3.3c0-0.8-0.7-1.5-1.5-1.5h-3.3
              c-0.8,0-1.5,0.7-1.5,1.5v3.3c0,0.8,0.7,1.5,1.5,1.5h3.3C20.7,69.2,21.4,68.5,21.4,67.7z M30.4,67.7v-3.3c0-0.8-0.7-1.5-1.5-1.5h-3.3
              c-0.8,0-1.5,0.7-1.5,1.5v3.3c0,0.8,0.7,1.5,1.5,1.5h3.3C29.7,69.2,30.4,68.5,30.4,67.7z M0,24.9V5.6C0,2.5,2.5,0,5.6,0h36.9
              C45.5,0,48,2.5,48,5.6v19.3H0z M41.9,5.4H6.1v14h35.8V5.4z"/>
</svg>
