<?xml version="1.0" encoding="UTF-8" standalone="no"?>
<svg
   xmlns:dc="http://purl.org/dc/elements/1.1/"
   xmlns:cc="http://creativecommons.org/ns#"
   xmlns:rdf="http://www.w3.org/1999/02/22-rdf-syntax-ns#"
   xmlns:svg="http://www.w3.org/2000/svg"
   xmlns="http://www.w3.org/2000/svg"
   xmlns:sodipodi="http://sodipodi.sourceforge.net/DTD/sodipodi-0.dtd"
   xmlns:inkscape="http://www.inkscape.org/namespaces/inkscape"
   version="1.1"
   id="Layer_1"
   x="0px"
   y="0px"
   viewBox="0 0 48 74"
   style="enable-background:new 0 0 432.3 512;"
   xml:space="preserve"
   sodipodi:docname="calc.svg"
   inkscape:version="1.0.1 (1.0.1+r73)"><metadata
   id="metadata9"><rdf:RDF><cc:Work
       rdf:about=""><dc:format>image/svg+xml</dc:format><dc:type
         rdf:resource="http://purl.org/dc/dcmitype/StillImage" /></cc:Work></rdf:RDF></metadata><defs
   id="defs7" /><sodipodi:namedview
   pagecolor="#ffffff"
   bordercolor="#666666"
   borderopacity="1"
   objecttolerance="10"
   gridtolerance="10"
   guidetolerance="10"
   inkscape:pageopacity="0"
   inkscape:pageshadow="2"
   inkscape:window-width="856"
   inkscape:window-height="480"
   id="namedview5"
   showgrid="false"
   inkscape:zoom="4.4150611"
   inkscape:cx="24"
   inkscape:cy="37"
   inkscape:window-x="0"
   inkscape:window-y="0"
   inkscape:window-maximized="0"
   inkscape:current-layer="Layer_1" />
<path
   style="fill:#6200ea;fill-opacity:1"
   d="M48,26.9v41.6c0,3.1-2.5,5.6-5.6,5.6H5.6C2.5,74,0,71.5,0,68.4V26.9H48z M12.4,37.2v-3.3c0-0.8-0.7-1.5-1.5-1.5               H7.6c-0.8,0-1.5,0.7-1.5,1.5v3.3c0,0.8,0.7,1.5,1.5,1.5h3.3C11.8,38.7,12.4,38,12.4,37.2z M21.4,37.2v-3.3c0-0.8-0.7-1.5-1.5-1.5               h-3.3c-0.8,0-1.5,0.7-1.5,1.5v3.3c0,0.8,0.7,1.5,1.5,1.5h3.3C20.7,38.7,21.4,38,21.4,37.2z M30.4,37.2v-3.3c0-0.8-0.7-1.5-1.5-1.5               h-3.3c-0.8,0-1.5,0.7-1.5,1.5v3.3c0,0.8,0.7,1.5,1.5,1.5h3.3C29.7,38.7,30.4,38,30.4,37.2z M12.4,47.3V44c0-0.8-0.7-1.5-1.5-1.5H7.6               c-0.8,0-1.5,0.7-1.5,1.5v3.3c0,0.8,0.7,1.5,1.5,1.5h3.3C11.8,48.8,12.4,48.2,12.4,47.3z M21.4,47.3V44c0-0.8-0.7-1.5-1.5-1.5h-3.3               c-0.8,0-1.5,0.7-1.5,1.5v3.3c0,0.8,0.7,1.5,1.5,1.5h3.3C20.7,48.8,21.4,48.2,21.4,47.3z M30.4,47.3V44c0-0.8-0.7-1.5-1.5-1.5h-3.3               c-0.8,0-1.5,0.7-1.5,1.5v3.3c0,0.8,0.7,1.5,1.5,1.5h3.3C29.7,48.8,30.4,48.2,30.4,47.3z M12.4,57.5v-3.3c0-0.8-0.7-1.5-1.5-1.5H7.6               c-0.8,0-1.5,0.7-1.5,1.5v3.3c0,0.8,0.7,1.5,1.5,1.5h3.3C11.8,59,12.4,58.3,12.4,57.5z M21.4,57.5v-3.3c0-0.8-0.7-1.5-1.5-1.5h-3.3               c-0.8,0-1.5,0.7-1.5,1.5v3.3c0,0.8,0.7,1.5,1.5,1.5h3.3C20.7,59,21.4,58.3,21.4,57.5z M30.4,57.5v-3.3c0-0.8-0.7-1.5-1.5-1.5h-3.3               c-0.8,0-1.5,0.7-1.5,1.5v3.3c0,0.8,0.7,1.5,1.5,1.5h3.3C29.7,59,30.4,58.3,30.4,57.5z M41.9,37.2v-3.3c0-0.8-0.7-1.5-1.5-1.5h-3.3               c-0.8,0-1.5,0.7-1.5,1.5v3.3c0,0.8,0.7,1.5,1.5,1.5h3.3C41.2,38.7,41.9,38,41.9,37.2z M41.9,47.3V44c0-0.8-0.7-1.5-1.5-1.5h-3.3               c-0.8,0-1.5,0.7-1.5,1.5v3.3c0,0.8,0.7,1.5,1.5,1.5h3.3C41.2,48.8,41.9,48.2,41.9,47.3z M41.9,67.7V54.2c0-0.8-0.7-1.5-1.5-1.5h-3.3               c-0.8,0-1.5,0.7-1.5,1.5v13.5c0,0.8,0.7,1.5,1.5,1.5h3.3C41.2,69.2,41.9,68.5,41.9,67.7z M12.4,67.7v-3.3c0-0.8-0.7-1.5-1.5-1.5H7.6               c-0.8,0-1.5,0.7-1.5,1.5v3.3c0,0.8,0.7,1.5,1.5,1.5h3.3C11.8,69.2,12.4,68.5,12.4,67.7z M21.4,67.7v-3.3c0-0.8-0.7-1.5-1.5-1.5h-3.3               c-0.8,0-1.5,0.7-1.5,1.5v3.3c0,0.8,0.7,1.5,1.5,1.5h3.3C20.7,69.2,21.4,68.5,21.4,67.7z M30.4,67.7v-3.3c0-0.8-0.7-1.5-1.5-1.5h-3.3               c-0.8,0-1.5,0.7-1.5,1.5v3.3c0,0.8,0.7,1.5,1.5,1.5h3.3C29.7,69.2,30.4,68.5,30.4,67.7z M0,24.9V5.6C0,2.5,2.5,0,5.6,0h36.9               C45.5,0,48,2.5,48,5.6v19.3H0z M41.9,5.4H6.1v14h35.8V5.4z"
   id="path2" />
</svg>
