<?xml version="1.0" encoding="UTF-8" standalone="no"?>
<svg
   xmlns:dc="http://purl.org/dc/elements/1.1/"
   xmlns:cc="http://creativecommons.org/ns#"
   xmlns:rdf="http://www.w3.org/1999/02/22-rdf-syntax-ns#"
   xmlns:svg="http://www.w3.org/2000/svg"
   xmlns="http://www.w3.org/2000/svg"
   xmlns:sodipodi="http://sodipodi.sourceforge.net/DTD/sodipodi-0.dtd"
   xmlns:inkscape="http://www.inkscape.org/namespaces/inkscape"
   viewBox="0 0 486.7 486.7"
   version="1.1"
   id="svg12"
   sodipodi:docname="chart_flat.svg"
   inkscape:version="1.0.1 (1.0.1+r73)">
  <metadata
     id="metadata18">
    <rdf:RDF>
      <cc:Work
         rdf:about="">
        <dc:format>image/svg+xml</dc:format>
        <dc:type
           rdf:resource="http://purl.org/dc/dcmitype/StillImage" />
      </cc:Work>
    </rdf:RDF>
  </metadata>
  <defs
     id="defs16" />
  <sodipodi:namedview
     pagecolor="#ffffff"
     bordercolor="#666666"
     borderopacity="1"
     objecttolerance="10"
     gridtolerance="10"
     guidetolerance="10"
     inkscape:pageopacity="0"
     inkscape:pageshadow="2"
     inkscape:window-width="887"
     inkscape:window-height="480"
     id="namedview14"
     showgrid="false"
     inkscape:zoom="0.67128522"
     inkscape:cx="-47.882386"
     inkscape:cy="243.35001"
     inkscape:window-x="0"
     inkscape:window-y="0"
     inkscape:window-maximized="0"
     inkscape:current-layer="svg12" />
  <g
     fill="#1f8af1"
     id="g10"
     style="fill:#6200ea;fill-opacity:1"
     transform="translate(0,0.1)">
    <path
       d="m 33,362.4 v 78.9 c 0,4.8 3.9,8.8 8.8,8.8 h 61 c 4.8,0 8.8,-3.9 8.8,-8.8 V 302.5 l -44.3,44.3 c -9.4,9.3 -21.4,14.7 -34.3,15.6 z m 109,-60.9 v 139.8 c 0,4.8 3.9,8.8 8.8,8.8 h 61 c 4.8,0 8.8,-3.9 8.8,-8.8 V 359 c -13.9,-0.3 -26.9,-5.8 -36.7,-15.6 z m 109,48.8 v 91 c 0,4.8 3.9,8.8 8.8,8.8 h 61 c 4.8,0 8.8,-3.9 8.8,-8.8 V 273.4 l -69.9,69.9 c -2.7,2.7 -5.6,5 -8.7,7 z M 432.7,170.2 360,242.9 v 198.4 c 0,4.8 3.9,8.8 8.8,8.8 h 61 c 4.8,0 8.8,-3.9 8.8,-8.8 V 175.7 c -2,-1.7 -3.5,-3.2 -4.6,-4.2 z"
       id="path2"
       style="fill:#6200ea;fill-opacity:1" />
    <path
       d="m 482.6,41.4 c -2.9,-3.1 -7.3,-4.7 -12.9,-4.7 h -1.6 c -28.4,1.3 -56.7,2.7 -85.1,4 -3.8,0.2 -9,0.4 -13.1,4.5 -1.3,1.3 -2.3,2.8 -3.1,4.6 -4.2,9.1 1.7,15 4.5,17.8 l 7.1,7.2 c 4.9,5 9.9,10 14.9,14.9 L 221.7,261.4 144.6,184.3 c -4.6,-4.6 -10.8,-7.2 -17.4,-7.2 -6.6,0 -12.7,2.6 -17.3,7.2 L 7.2,286.9 c -9.6,9.6 -9.6,25.1 0,34.7 l 4.6,4.6 c 4.6,4.6 10.8,7.2 17.4,7.2 6.6,0 12.7,-2.6 17.3,-7.2 l 80.7,-80.7 77.1,77.1 c 4.6,4.6 10.8,7.2 17.4,7.2 6.6,0 12.7,-2.6 17.4,-7.2 L 432.7,129 l 21.9,21.8 c 2.6,2.6 6.2,6.2 11.7,6.2 2.3,0 4.6,-0.6 7,-1.9 1.6,-0.9 3,-1.9 4.2,-3.1 4.3,-4.3 5.1,-9.8 5.3,-14.1 0.8,-18.4 1.7,-36.8 2.6,-55.3 l 1.3,-27.7 c 0.3,-5.8 -1,-10.3 -4.1,-13.5 z"
       id="path4"
       style="fill:#6200ea;fill-opacity:1" />
    <path
       d="m 220.3,135.7 v 22.6 c 6.9,-0.5 14,-3.7 14,-11.2 0,-7.8 -7.9,-10.1 -14,-11.4 z m -19.7,-27.1 c 0,5.7 4.3,9 12.8,10.7 V 98.9 c -7.8,0.2 -12.8,4.8 -12.8,9.7 z"
       id="path6"
       style="fill:#6200ea;fill-opacity:1" />
    <path
       d="m 216.6,60 c -38.1,0 -69.1,31 -69.1,69 0,38.1 31,69 69.1,69 38.1,0 69,-31 69,-69 0,-38 -30.9,-69 -69,-69 z m 3.7,109.9 v 7.1 c 0,2 -1.5,3.9 -3.4,3.9 -1.9,0 -3.4,-1.9 -3.4,-3.9 v -7.1 c -19.3,-0.5 -28.9,-12 -28.9,-21 0,-4.6 2.7,-7.2 7.1,-7.2 12.8,0 2.9,15.7 21.8,16.6 v -23.9 c -16.9,-3.1 -27.2,-10.5 -27.2,-23.2 0,-15.5 12.9,-23.5 27.2,-24 v -6.1 c 0,-2 1.5,-3.9 3.4,-3.9 2,0 3.4,1.9 3.4,3.9 v 6.1 c 8.9,0.2 27.2,5.8 27.2,17 0,4.4 -3.3,7.1 -7.2,7.1 -7.4,0 -7.3,-12.2 -20,-12.4 v 21.7 c 15.1,3.2 28.4,7.7 28.4,25.2 0,15.3 -11.4,23.1 -28.4,24.1 z"
       id="path8"
       style="fill:#6200ea;fill-opacity:1" />
  </g>
</svg>
