<svg xmlns="http://www.w3.org/2000/svg" viewBox="0 0 486.7 486.7"><g fill="#1f8af1"><path d="M33 362.4v78.9c0 4.8 3.9 8.8 8.8 8.8h61c4.8 0 8.8-3.9 8.8-8.8V302.5l-44.3 44.3c-9.4 9.3-21.4 14.7-34.3 15.6zM142 301.5v139.8c0 4.8 3.9 8.8 8.8 8.8h61c4.8 0 8.8-3.9 8.8-8.8V359c-13.9-.3-26.9-5.8-36.7-15.6L142 301.5zM251 350.3v91c0 4.8 3.9 8.8 8.8 8.8h61c4.8 0 8.8-3.9 8.8-8.8V273.4l-69.9 69.9c-2.7 2.7-5.6 5-8.7 7zM432.7 170.2L360 242.9v198.4c0 4.8 3.9 8.8 8.8 8.8h61c4.8 0 8.8-3.9 8.8-8.8V175.7c-2-1.7-3.5-3.2-4.6-4.2l-1.3-1.3z"/><path d="M482.6 41.4c-2.9-3.1-7.3-4.7-12.9-4.7h-1.6c-28.4 1.3-56.7 2.7-85.1 4-3.8.2-9 .4-13.1 4.5-1.3 1.3-2.3 2.8-3.1 4.6-4.2 9.1 1.7 15 4.5 17.8l7.1 7.2c4.9 5 9.9 10 14.9 14.9L221.7 261.4l-77.1-77.1c-4.6-4.6-10.8-7.2-17.4-7.2s-12.7 2.6-17.3 7.2L7.2 286.9c-9.6 9.6-9.6 25.1 0 34.7l4.6 4.6c4.6 4.6 10.8 7.2 17.4 7.2s12.7-2.6 17.3-7.2l80.7-80.7 77.1 77.1c4.6 4.6 10.8 7.2 17.4 7.2 6.6 0 12.7-2.6 17.4-7.2L432.7 129l21.9 21.8c2.6 2.6 6.2 6.2 11.7 6.2 2.3 0 4.6-.6 7-1.9 1.6-.9 3-1.9 4.2-3.1 4.3-4.3 5.1-9.8 5.3-14.1.8-18.4 1.7-36.8 2.6-55.3l1.3-27.7c.3-5.8-1-10.3-4.1-13.5z"/><path d="M220.3 135.7v22.6c6.9-.5 14-3.7 14-11.2 0-7.8-7.9-10.1-14-11.4zM200.6 108.6c0 5.7 4.3 9 12.8 10.7V98.9c-7.8.2-12.8 4.8-12.8 9.7z"/><path d="M216.6 60c-38.1 0-69.1 31-69.1 69 0 38.1 31 69 69.1 69 38.1 0 69-31 69-69s-30.9-69-69-69zm3.7 109.9v7.1c0 2-1.5 3.9-3.4 3.9s-3.4-1.9-3.4-3.9v-7.1c-19.3-.5-28.9-12-28.9-21 0-4.6 2.7-7.2 7.1-7.2 12.8 0 2.9 15.7 21.8 16.6v-23.9c-16.9-3.1-27.2-10.5-27.2-23.2 0-15.5 12.9-23.5 27.2-24v-6.1c0-2 1.5-3.9 3.4-3.9 2 0 3.4 1.9 3.4 3.9v6.1c8.9.2 27.2 5.8 27.2 17 0 4.4-3.3 7.1-7.2 7.1-7.4 0-7.3-12.2-20-12.4v21.7c15.1 3.2 28.4 7.7 28.4 25.2 0 15.3-11.4 23.1-28.4 24.1z"/></g></svg>