<?xml version="1.0" encoding="iso-8859-1"?>
<!-- Generator: Adobe Illustrator 19.0.0, SVG Export Plug-In . SVG Version: 6.00 Build 0)  -->
<svg version="1.1" id="Capa_1" xmlns="http://www.w3.org/2000/svg" xmlns:xlink="http://www.w3.org/1999/xlink" x="0px" y="0px"
	 viewBox="0 0 511.999 511.999" style="enable-background:new 0 0 511.999 511.999;" xml:space="preserve">
<path style="fill:#85CDEA;" d="M155.644,437.035l-67.829,56.167c-9.737,8.063-21.749,11.76-33.554,11.202
	c-11.814-0.549-23.423-5.354-32.366-14.298c-17.888-17.888-19.22-46.449-3.096-65.921l56.167-67.829L155.644,437.035z"/>
<path style="fill:#4FB6E0;" d="M133.034,455.757l22.61-18.722l-21.21-21.21l-67.829,56.167c-9.737,8.063-21.749,11.76-33.555,11.203
	c-6.937-0.322-13.799-2.124-20.094-5.353c1.066,2.076,2.293,4.087,3.668,6.022c9.979,14.033,27.143,21.918,44.281,20.405
	c9.585-0.847,18.998-4.516,26.909-11.067L133.034,455.757z"/>
<path style="fill:#596674;" d="M366.635,262.343L155.644,437.035c-15.747-9.035-31.233-20.813-45.549-35.129
	C95.779,387.59,84,372.104,74.966,356.357l174.692-210.991L366.635,262.343z"/>
<path style="fill:#364E66;" d="M129.919,419.565c8.393,6.638,17.018,12.476,25.725,17.471l210.991-174.692l-21.21-21.21
	L134.434,415.825L129.919,419.565z"/>
<path style="fill:#596674;" d="M484.425,209.406c31.908-50.935,25.709-118.921-18.599-163.23S353.531-4.332,302.595,27.577v60.578
	l58.946,66.683l90.16,63.971L484.425,209.406z"/>
<path style="fill:#364E66;" d="M465.825,46.176c-2.827-2.827-5.751-5.496-8.76-8.013c33.79,49.484,34.878,114.6,3.252,165.085
	l-21.741,6.247l13.125,9.313l32.723-9.403C516.333,158.47,510.134,90.484,465.825,46.176z"/>
<g>
	<path style="fill:#85CDEA;" d="M250.168,261.833c-8.105-8.105-21.246-8.105-29.351,0l-15.641,15.641
		c-8.105,8.105-8.105,21.246,0,29.351s21.246,8.105,29.351,0l15.641-15.641C258.273,283.079,258.273,269.939,250.168,261.833z"/>
	<path style="fill:#85CDEA;" d="M267.004,60.3c-38.861,51.679-34.781,125.399,12.258,172.439
		c47.039,47.039,120.76,51.119,172.439,12.258L267.004,60.3z"/>
</g>
<path style="fill:#4FB6E0;" d="M267.004,60.3L267.004,60.3l170.558,170.559c-49.066,36.896-117.996,35.078-165.1-5.457
	c2.159,2.51,4.422,4.959,6.801,7.339c47.039,47.039,120.76,51.119,172.439,12.258L267.004,60.3z"/>
<path style="fill:#D2D2D2;" d="M342.399,169.602c-36.04-36.04-63.53-77.014-78.095-116.217c3.226-4.051,6.711-7.961,10.458-11.708
	c8.017-8.017,16.78-14.841,26.069-20.474l-0.008,0.006c0.868,3.429,1.899,6.959,3.095,10.577
	c11.563,35.001,36.415,72.761,69.976,106.321s71.32,58.412,106.321,69.976c3.617,1.195,7.147,2.227,10.577,3.095l0.006-0.008
	c-5.632,9.289-12.457,18.053-20.474,26.069c-3.746,3.746-7.657,7.233-11.708,10.458
	C419.413,233.131,378.439,205.641,342.399,169.602z"/>
<path style="fill:#A1A1A1;" d="M490.798,211.169l-0.007,0.008c-3.429-0.868-6.959-1.899-10.577-3.095
	c-6.029-1.992-12.14-4.387-18.297-7.144c-5.55,8.974-12.202,17.454-19.98,25.232c-3.379,3.378-6.896,6.535-10.522,9.494
	c9.107,4.654,18.201,8.688,27.202,12.031c4.051-3.226,7.961-6.711,11.708-10.458C478.341,229.223,485.165,220.458,490.798,211.169z"
	/>
<path d="M363.458,61.134c2.894,2.895,7.712,2.895,10.604,0l7.923-7.923c2.929-2.929,2.929-7.677,0-10.604
	c-2.929-2.93-7.677-2.93-10.604,0l-7.923,7.923C360.529,53.458,360.529,58.206,363.458,61.134z"/>
<path d="M456.315,150.836c1.935,0,3.87-0.717,5.301-2.148l7.923-7.923c2.929-2.929,2.929-7.677,0-10.605
	c-2.929-2.929-7.677-2.929-10.604,0l-7.923,7.923c-2.929,2.929-2.929,7.677,0,10.604
	C452.445,150.121,454.381,150.836,456.315,150.836z"/>
<path d="M422.616,117.401c4.685,0.01,9.109-2.828,8.759-8.042c-0.278-4.132-3.855-7.259-7.984-6.979
	c-3.533,0.238-7.1-1.164-9.781-3.844c-2.681-2.682-4.082-6.246-3.844-9.781c0.278-4.132-2.848-7.707-6.979-7.984
	c-4.132-0.275-7.707,2.848-7.984,6.979c-0.528,7.852,2.463,15.649,8.204,21.391C408.17,114.305,415.316,117.385,422.616,117.401z"/>
<path d="M215.561,256.63c0,0-15.634,15.634-15.641,15.641c-10.889,10.889-10.879,29.078,0,39.955
	c10.891,10.889,29.074,10.882,39.955,0.001c0,0,15.634-15.634,15.641-15.641c10.883-10.882,10.868-29.089,0-39.955
	C244.623,245.736,226.448,245.743,215.561,256.63z M248.746,276.608c0,3.409-1.279,6.816-3.834,9.372l-15.641,15.642
	c-5.107,5.106-13.648,5.097-18.745-0.001c-5.114-5.115-5.108-13.637,0-18.745c0,0,15.627-15.627,15.641-15.641
	c5.112-5.112,13.641-5.104,18.745,0C247.468,269.791,248.746,273.199,248.746,276.608z"/>
<path d="M69.237,351.674L13.07,419.501c-18.706,22.59-17.172,55.265,3.568,76.007c20.332,20.333,53.852,21.915,76.006,3.568
	c0,0,67.827-56.166,67.828-56.166l198.781-164.583c1.343,0.128,2.689,0.245,4.038,0.334c31.634,2.098,63.594-6.802,89.518-25.072
	c3.561,1.384,7.144,2.765,10.524,0.073c4.29-3.415,8.442-7.124,12.34-11.022c8.29-8.29,15.551-17.536,21.583-27.483
	c1.965-3.24,1.189-7.41-1.754-9.748c13.137-24.553,18.699-52.897,15.706-80.804c-3.378-31.492-17.595-61.194-40.035-83.633
	C444.841,14.641,409.83,0.139,372.591,0.139c-23.109,0-45.686,5.685-65.853,16.501c-2.333-2.936-6.505-3.716-9.751-1.749
	c-14.7,8.913-27.8,20.475-38.505,33.924c-1.637,2.056-2.078,4.818-1.163,7.282c0.401,1.079,0.816,2.16,1.236,3.242
	c-18.303,25.969-27.194,57.583-25.074,89.518c0.09,1.35,0.206,2.695,0.334,4.038L69.237,351.674z M460.57,51.576
	c20.316,20.316,32.67,46.121,35.728,74.627c2.763,25.757-2.631,51.928-15.22,74.333c-0.284-0.097-3.477-1.225-4.024-1.427
	c-37.147-13.686-70.019-38.415-97.81-66.206c-28.573-28.573-53.892-62.554-67.345-100.99c-0.098-0.283-0.193-0.564-0.289-0.847
	c18.544-10.439,39.506-15.932,60.984-15.932C405.826,15.135,437.07,28.077,460.57,51.576z M265.667,75.898
	c0.433,0.922,1.439,2.964,1.487,3.063c13.497,27.844,32.564,55.523,56.111,81.454c14.98,16.497,31.248,31.82,48.724,45.651
	c3.247,2.571,7.964,2.022,10.535-1.229c2.57-3.248,2.021-7.964-1.228-10.533c-14.031-11.102-27.272-23.217-39.644-36.141
	c-24.969-26.11-45.693-55.042-59.885-83.477c-2.419-4.845-8.187-18.115-8.853-19.809c6.941-8.157,14.875-15.469,23.582-21.706
	c0.115,0.354,0.23,0.709,0.348,1.064c11.923,36.093,37.42,74.899,71.794,109.272c30.727,30.727,67.647,58.042,109.272,71.793
	c0.355,0.118,0.709,0.233,1.064,0.348c-4.164,5.812-8.818,11.298-13.905,16.385c-2.498,2.499-5.111,4.909-7.802,7.199
	c-0.892-0.351-1.786-0.713-2.687-1.081c-17.397-7.106-33.944-16.236-49.59-26.624c-3.391-2.253-8.149-1.287-10.396,2.099
	c-2.292,3.45-1.353,8.104,2.098,10.395c12.57,8.351,25.665,15.886,39.314,22.331c0.083,0.039,0.166,0.082,0.249,0.121
	c-21.536,12.832-46.644,18.903-71.971,17.222c-29.871-1.979-58.512-14.991-79.674-36.162
	c-21.148-21.158-34.181-49.815-36.162-79.674C246.769,122.533,252.838,97.43,265.667,75.898z M265.907,229.307
	c5.295,6.261,11.263,12.161,17.579,17.476c16.424,13.713,35.479,23.311,56.192,28.281L154.976,427.989
	c-3.475-2.118-6.883-4.345-10.223-6.667c-8.735-6.103-16.99-12.862-24.732-20.183c-1.941-1.837-3.854-3.702-5.727-5.608
	c-2.908-2.95-7.655-2.985-10.604-0.077c-2.951,2.907-2.985,7.655-0.078,10.604c9.135,9.27,19.011,17.814,29.563,25.435
	c3.128,2.26,6.317,4.439,9.561,6.529c0.023,0.015,0.046,0.031,0.07,0.046c0,0-59.709,49.443-59.724,49.456
	c-16.289,13.488-40.898,12.315-55.836-2.623c-15.237-15.238-16.364-39.242-2.623-55.836l49.461-59.728
	c2.989,4.633,6.153,9.154,9.477,13.553c2.426,3.21,7.299,3.885,10.504,1.461c3.304-2.497,3.957-7.2,1.461-10.503
	c-4.057-5.369-7.86-10.935-11.366-16.679l152.925-184.702c4.97,20.718,14.57,39.775,28.287,56.2
	C265.548,228.881,265.727,229.095,265.907,229.307z"/>
<g>
</g>
<g>
</g>
<g>
</g>
<g>
</g>
<g>
</g>
<g>
</g>
<g>
</g>
<g>
</g>
<g>
</g>
<g>
</g>
<g>
</g>
<g>
</g>
<g>
</g>
<g>
</g>
<g>
</g>
</svg>
